<svg width="300" height="156" viewBox="0 0 300 156" fill="none" xmlns="http://www.w3.org/2000/svg">
<rect width="300" height="156" fill="#FFE278"/>
<path d="M179.986 101.601C178.829 101.601 176.488 101.543 175.787 101.354C175.443 101.26 174.306 100.846 172.79 100.19C172.07 99.8789 171.818 99.6761 171.123 99.3282C170.554 99.0436 169.504 98.6337 168.073 98.2083C166.641 97.7829 164.851 97.3786 163.784 97.1702C162.717 96.9619 162.428 96.9619 161.557 97.2219C160.686 97.4818 159.242 98.0017 158.339 98.3562C157.101 98.8422 156.647 99.207 156.356 99.5846C155.976 100.078 155.887 100.578 155.786 100.884C155.632 101.346 155.247 102.669 154.897 104.448C154.609 105.914 154.978 106.523 155.913 108.064L155.926 108.086C156.442 108.935 157.716 109.764 159.318 110.726C160.052 111.166 160.727 111.392 161.295 111.582L161.319 111.59C161.892 111.782 162.354 111.897 164.759 112.029C167.163 112.161 171.496 112.305 174.334 112.322C177.173 112.338 178.386 112.223 179.444 112.062C181.38 111.768 182.463 111.376 182.799 111.128C182.949 111.017 182.989 110.852 183.019 110.72C183.074 110.477 182.905 109.949 182.209 108.686C182.065 108.424 181.876 108.131 181.66 107.82M181.66 107.82C181.591 107.72 181.518 107.618 181.444 107.515M181.66 107.82C181.505 107.867 181.238 107.928 180.772 108.023C179.896 108.2 178.366 108.489 175.77 108.589C173.174 108.689 169.622 108.602 167.295 108.44C164.968 108.277 163.892 108.073 163.067 107.826C161.658 107.405 160.833 107.139 160.656 106.851C160.641 106.825 160.63 106.799 160.623 106.774M181.66 107.82C181.795 107.779 181.845 107.748 181.866 107.714C181.901 107.658 181.859 107.594 181.444 107.515M181.444 107.515C180.968 106.858 180.403 106.15 179.904 105.525L179.882 105.498C179.657 105.217 179.445 104.959 179.238 104.72M181.444 107.515C181.315 107.491 181.152 107.465 180.943 107.437C180.061 107.321 178.386 107.176 176.931 106.972C174.277 106.599 173.1 106.153 173.187 105.978C173.288 105.775 173.768 105.657 174.697 105.468C176.1 105.184 177.355 104.869 178.229 104.781C178.665 104.763 178.991 104.742 179.238 104.72M179.238 104.72C178.688 104.084 178.183 103.589 177.619 103.171C176.843 102.597 175.977 102.192 174.953 101.897C173.929 101.603 172.774 101.429 170.474 101.354C168.175 101.28 164.767 101.308 163.069 101.396C161.445 101.479 161.48 101.614 161.727 101.817M179.238 104.72C179.789 104.671 179.951 104.617 180.072 104.577C180.16 104.548 180.246 104.519 180.423 104.489M161.727 101.817C161.738 101.827 161.75 101.836 161.762 101.846C161.86 101.923 161.964 101.998 162.074 102.072M161.727 101.817C161.862 101.899 162.005 101.987 162.151 102.08M161.727 101.817C161.701 101.802 161.675 101.786 161.65 101.771C160.261 100.94 159.391 100.842 158.852 101.001C157.861 101.294 157.786 102.847 157.608 104.759C157.566 105.213 157.637 105.59 159.081 106.202C159.499 106.379 160.034 106.575 160.623 106.774M162.074 102.072C162.273 102.206 162.494 102.334 162.735 102.458M162.074 102.072C162.099 102.075 162.125 102.077 162.151 102.08M162.074 102.072C161.261 101.992 160.854 101.987 160.536 101.995C159.945 102.009 159.685 102.066 159.522 102.14C159.274 102.251 159.184 102.562 159.111 102.897C159.077 103.055 159.125 103.203 159.356 103.378C159.588 103.553 160.021 103.756 160.981 103.975C163.393 104.527 165.018 104.635 165.135 104.505C165.205 104.426 165.136 104.23 164.486 103.708C164.07 103.374 163.402 102.9 162.735 102.458M162.735 102.458C163.3 102.749 163.976 103.016 164.746 103.261C165.469 103.491 166.372 103.668 168.826 103.917C171.28 104.165 175.266 104.454 174.605 104.155C173.943 103.856 168.513 102.961 165.268 102.485C163.823 102.274 162.845 102.15 162.151 102.08M162.735 102.458C162.538 102.328 162.341 102.2 162.151 102.08M160.623 106.774C162.073 107.263 163.849 107.773 164.989 108.069C166.83 108.549 167.293 108.37 167.599 108.239C167.848 108.132 167.936 107.904 167.965 107.729C168.071 107.098 166.077 106.534 164.419 106.155C162.622 105.744 161.345 105.947 160.923 106.107C160.743 106.175 160.702 106.353 160.658 106.486C160.623 106.589 160.598 106.682 160.623 106.774ZM148 87.1861C148.955 86.7494 151.092 85.7286 152.33 85.2201C153.066 84.9177 153.979 84.6435 154.791 84.4384C155.357 84.2957 155.824 84.0736 156.313 83.8411L156.34 83.8282C156.576 83.716 157.418 83.3549 159.081 82.8638C159.983 82.5976 161.05 82.4735 162.786 82.3366C164.522 82.1997 166.906 82.0989 168.219 82.0638C170.048 82.0149 170.735 82.1641 171.406 82.3844C171.944 82.5609 172.421 82.842 172.972 83.0292C173.636 83.2549 174.926 83.756 175.929 84.0639C176.908 84.3644 177.851 84.8756 178.716 85.4201C179.211 85.7315 179.44 86.3352 179.561 86.9291C179.645 87.3431 179.613 87.694 179.664 88.552C179.794 90.7163 179.648 92.3415 179.596 93.6204C179.577 94.0941 179.64 94.6031 179.751 95.1171M179.751 95.1171C180.375 98.029 182.51 101.103 179.732 98.8552C179.506 98.6717 179.647 97.3686 179.732 95.5181C179.738 95.3918 179.744 95.2578 179.751 95.1171ZM179.751 95.1171C179.836 93.1967 179.957 90.0241 179.99 87.9719C180.026 85.7693 179.958 84.9631 179.838 84.0944C179.591 82.3123 179.202 80.9142 178.808 79.9498C178.123 78.2747 177.244 78.0947 176.401 77.6377C174.571 76.6464 173.424 75.7211 172.89 75.3802C172.67 75.2396 172.323 75.0748 170.616 74.6534C169.158 74.2932 166.458 73.7954 164.408 73.4849C162.358 73.1745 161.03 73.1073 160.243 73.0559C159.251 72.9911 158.77 72.9363 156.995 73.1714C155.487 73.3712 152.768 73.8768 151.313 74.1526C149.747 74.4497 149.277 74.6656 148.692 74.8687C148.471 74.9454 148.448 75.0718 148.55 76.0809C148.651 77.0901 148.89 79.0047 149.046 80.1085C149.237 81.4526 149.41 81.8577 149.564 82.129C149.63 82.2456 149.752 82.2659 149.873 82.2496C149.994 82.2333 150.13 82.1661 152.669 81.3925C155.208 80.619 160.146 79.1411 162.656 78.3294C164.588 77.7045 164.993 77.5009 164.167 77.34M164.167 77.34C163.92 77.2919 163.563 77.2476 163.105 77.197C161.111 76.9772 157.195 76.6413 155.126 76.5018C153.058 76.3624 152.956 76.4296 152.75 76.5649C152.544 76.7003 152.237 76.9018 152.148 77.0224C152.058 77.1431 152.194 77.1767 154.018 77.1436C155.842 77.1105 159.35 77.0097 162.536 77.2097C163.094 77.2448 163.64 77.2892 164.167 77.34ZM164.167 77.34C166.649 77.5793 168.739 77.962 169.953 78.1899C171.743 78.526 172.146 78.7034 173.346 79.1767C174.474 79.5482 175.277 79.7894 175.535 79.8571C175.656 79.8912 175.758 79.9248 175.76 80.163" stroke="#FFB845" stroke-width="5" stroke-linecap="round"/>
<path d="M148.275 77.4745C148.275 79.7892 148.275 82.104 148.275 83.4475C148.275 84.7909 148.271 85.2712 148.271 85.2712C148.259 85.7168 148.289 87.8271 148.275 88.1645" stroke="#780116" stroke-linecap="round"/>
<path d="M140.178 71.7779C140.178 72.0022 140.219 72.4543 140.567 73.1612C140.743 73.5188 140.978 73.7073 141.194 74.0249C141.503 74.4804 141.696 74.8149 141.851 75.1035C142.062 75.4949 142.539 75.904 142.948 76.4061C143.497 77.0786 143.996 77.5266 144.182 77.7524C144.229 77.8099 144.264 77.8753 144.315 77.9169C144.367 77.9585 144.428 77.9788 144.469 77.9588C144.511 77.9388 144.531 77.8778 144.531 77.8159C144.533 77.5448 144.262 77.1629 143.777 76.4274M143.777 76.4274C143.762 76.4052 143.748 76.3827 143.733 76.3599C143.451 75.9313 143.076 75.5997 142.818 75.28C142.698 75.1321 142.602 74.9819 142.55 74.9403C142.32 74.7545 142.826 75.4728 143.083 75.7707C143.267 75.9844 143.525 76.2121 143.777 76.4274ZM143.777 76.4274C144.03 76.6439 144.278 76.848 144.438 77.0129C144.727 77.3107 144.88 77.5673 145.054 77.8242C145.3 78.186 145.619 78.4913 145.773 78.7381C145.927 78.9845 146.133 79.2306 146.143 79.7329C146.15 80.0564 146.051 80.3394 146.02 80.6064C145.979 80.9609 145.907 81.2831 145.856 81.836C145.772 82.7479 145.825 83.4405 145.794 83.8076C145.764 85.145 145.722 85.9193 145.671 86.7959C145.661 86.9715 145.661 87.1341 145.599 87.4249M162.578 36.7814C162.578 36.8533 162.434 37.1059 162.162 37.5584C161.883 38.0233 160.953 39.7074 159.557 41.9387C158.885 43.0118 158.442 43.6016 157.72 44.7755C155.666 48.1156 155.247 48.5401 154.884 49.2653C154.595 49.8419 154.485 50.8944 154.393 51.8064C154.319 52.5353 154.23 53.1856 154.211 55.7556C154.207 56.2777 154.279 56.7419 154.464 57.2137M154.464 57.2137C154.672 57.7455 155.024 58.2868 155.574 58.9312M154.464 57.2137C153.662 58.9493 153.615 59.1656 153.631 59.2697C153.651 59.3949 153.758 59.359 153.886 59.267C154.014 59.175 154.158 59.0312 154.304 58.9593C154.404 58.9102 154.503 58.8946 155.574 58.9312M154.464 57.2137C154.626 56.862 154.82 56.4479 155.05 55.9598C156.417 53.0626 159.076 47.5644 160.482 44.6241C161.887 41.6839 161.959 41.4683 162.032 41.3033C162.157 41.0209 162.646 42.6444 163.389 45.4556C163.989 47.7255 165.224 48.5357 166.038 50.1806C167.161 52.449 167.695 54.3454 167.894 55.1071C168.123 55.9829 168.53 56.7803 168.531 57.0346C168.533 57.3204 167.929 57.0074 167.688 56.913M155.574 58.9312C155.6 58.9628 155.628 58.9947 155.656 59.0269C156.819 60.3657 158.366 60.3391 158.925 60.3935C160.018 60.5 160.906 60.3761 161.807 60.3216C163.783 60.2023 165.226 60.2672 165.75 60.2127C166.735 60.1102 167.549 60.1583 168.27 60.0859C170.772 59.8348 171.862 59.8675 172.685 59.7592C172.817 59.7418 172.921 59.6868 169.958 59.5425C166.995 59.3982 160.958 59.1466 157.776 59.0171C156.77 58.9761 156.068 58.9481 155.574 58.9312ZM167.688 56.913C167.685 56.9119 167.682 56.9109 167.68 56.9099C167.4 56.8026 165.536 56.1705 162.76 55.3178C160.844 54.7291 160.184 54.4597 159.64 54.224C158.996 53.9454 158.224 54.2757 157.933 54.476C157.869 54.5203 157.93 54.353 158.039 54.261C158.468 53.8989 158.982 53.6626 159.454 53.0098C160.434 51.6548 161.885 49.8882 162.305 49.3601C162.645 48.9311 162.902 50.7529 163.429 51.4977C164.048 52.3733 164.682 53.1137 165.153 53.6403C165.561 54.0952 165.808 54.6383 166.314 55.4349C166.674 56.0021 167.155 56.4817 167.688 56.913ZM167.688 56.913C167.967 57.1394 168.262 57.3524 168.56 57.5578C169.091 57.923 169.859 58.3343 171.236 58.9158C172.613 59.4973 174.589 60.216 175.733 60.6222C178.022 61.4349 179.888 61.501 180.886 61.7357C182.359 62.0819 182.939 62.2262 183.376 62.4076C183.385 62.4113 183.394 62.4153 183.403 62.4195M183.403 62.4195C183.936 62.6648 184.975 63.7923 185.555 64.5485C185.694 64.7302 185.7 65.0205 185.719 65.1844C185.721 65.2109 185.629 65.0968 184.927 64.2506C184.544 63.7887 183.974 63.1075 183.403 62.4195ZM183.403 62.4195C182.928 61.8475 182.453 61.2707 182.085 60.8111C180.656 58.7448 180.365 57.7669 180.238 57.0052C180.183 56.7106 180.147 56.6028 180.001 56.2739M140.431 75.3557C140.431 74.9608 140.539 74.1976 140.666 74.0523C140.835 73.8594 141.081 74.7191 142.318 75.8405C142.949 76.4116 143.58 76.8211 144.239 77.3447C145.008 77.956 145.191 78.3235 145.445 78.5767C145.554 78.6864 145.626 78.7581 145.116 78.795C144.606 78.8319 143.513 78.8319 142.923 78.823C142.151 78.8113 141.791 78.7418 141.32 78.6693C140.975 78.6161 140.758 78.5788 140.567 78.4971C140.324 78.3928 140.829 79.1568 140.929 79.3833L140.931 79.388C141.07 79.7025 141.248 80.1062 141.822 81.837C142.056 82.5416 142.255 83.5021 142.402 84.0632C142.646 84.9955 142.892 85.527 143.101 86.2079C143.249 86.6869 143.074 87.3586 143.102 87.6302C143.133 87.9399 143.183 88.3352 143.21 89.3208C143.215 89.4787 143.237 89.4248 143.273 89.3702C143.429 89.1351 143.761 88.9186 144.196 88.4927C144.449 88.2446 144.793 88.0125 145.047 87.8941C145.103 87.8684 145.156 87.8311 145.201 87.7858C145.489 87.5001 145.176 86.2798 145.093 85.7763C144.994 85.1698 144.831 84.193 144.777 83.7041C144.756 83.5203 144.722 82.7319 144.731 81.6097C144.735 81.1321 144.812 81.0052 144.894 80.8968C144.982 80.7793 145.102 80.7151 145.192 80.7148C145.395 80.7142 145.32 82.2593 145.275 83.0678C145.265 83.1224 145.265 83.1762 145.256 83.2308C145.247 83.2854 145.229 83.3391 145.211 83.3402M177.855 58.1916C177.873 58.1916 177.891 58.1916 177.927 58.2006C177.963 58.2095 178.017 58.2274 178.054 58.2636C178.091 58.2997 178.108 58.3535 178.181 58.4632M145.69 100.069C146.518 100.696 146.964 101.791 147.44 102.816C147.656 103.28 147.914 104.053 148.268 105.68M148.268 105.68C148.622 107.306 149.042 109.774 149.293 111.118C149.626 112.898 149.968 113.378 150.69 114.531C151.265 115.449 152.226 116.017 153.498 116.642C154.253 117.012 156.068 117.045 158.542 117.284C159.737 117.399 161.835 117.665 165.067 117.814C168.3 117.963 172.603 117.999 174.767 118C176.827 118.001 176.823 117.854 177.489 117.599C180.14 116.584 181.058 116.464 181.787 115.949C182.296 115.589 182.899 115.034 183.624 114.391C184.415 113.689 184.802 112.707 185.118 111.902L185.127 111.881C185.635 110.588 186.081 109.79 186.874 107.779C187.21 106.929 187.247 106.235 187.495 105.409C187.724 104.649 187.813 103.67 188.043 102.825C188.268 101.996 188.483 101.25 188.609 100.66C188.704 100.212 188.943 99.7082 189.209 99.2303C189.442 98.8105 189.685 98.1331 189.968 97.5804C190.251 97.1036 189.774 95.0653 189.968 94.8459M148.268 105.68C146.109 105.452 146.56 102.701 144 98C142.639 95.5 139.861 89.5 139.5 87.5C138.556 82.2695 136.727 75.1509 137 74C137.042 70.8677 140.819 66.7361 141.361 66.6909C142.452 66.5999 149.084 61.7702 149.572 62.166C149.332 61.1028 149.442 60.1549 149.442 58.6466C149.442 58.0437 149.19 56.5289 149.442 51.9763C149.507 50.7897 149.504 50.322 149.572 49.9161C149.681 49.2714 149.806 48.6458 150.053 47.9393C150.294 47.2497 150.676 46.6359 151.233 45.8707C151.734 45.1812 152.236 44.5196 152.85 43.7532C154.139 42.1446 154.712 40.9424 156.332 39.2377C157.407 37.5704 163.365 32.5567 163.651 32C164.379 36.7116 165.41 42.1966 165.589 42.8376C166.074 44.5692 169.628 53.5463 170.173 54.5117C170.896 55.7917 171.765 58.0033 173.095 59.4065C173.343 59.6679 173.512 59.5727 173.643 59.4582C173.94 59.2006 174.427 58.5646 175.276 57.58C176.336 56.3499 177.22 54.4344 177.918 52.6203C178.271 51.5799 178.403 50.8876 178.468 50.245C178.482 50.0771 178.487 49.9443 178.461 49.8242M178.461 49.8242C178.443 49.745 178.412 49.6714 178.36 49.5968C178.36 49.6261 178.373 49.665 178.461 49.8242ZM178.461 49.8242C178.645 50.1597 179.158 51.0292 180.566 53.4684C182.549 56.9055 192.075 71.2158 192 76.2078C191.58 103.896 184.488 115.459 186.91 108.923" stroke="#780116" stroke-width="5" stroke-linecap="round"/>
<mask id="path-5-outside-1_3_14" maskUnits="userSpaceOnUse" x="6" y="32" width="288" height="122" fill="black">
<rect fill="white" x="6" y="32" width="288" height="122"/>
<path d="M56.144 33.4V44.664H33.488C24.8693 44.664 20.56 48.1627 20.56 55.16C20.56 58.9147 22.4373 62.1147 26.192 64.76C30.032 67.32 35.1947 69.7947 41.68 72.184C44.5813 73.2933 47.056 74.4453 49.104 75.64C51.152 76.7493 53.2 78.2427 55.248 80.12C57.296 81.9973 58.832 84.4293 59.856 87.416C60.88 90.3173 61.392 93.688 61.392 97.528C61.392 101.795 60.496 105.635 58.704 109.048C56.912 112.376 54.608 115.021 51.792 116.984C48.976 118.861 46.0747 120.312 43.088 121.336C40.1867 122.275 37.328 122.787 34.512 122.872C33.3173 122.957 31.6107 123 29.392 123H9.424V111.736H29.008C34.8107 111.736 39.5467 110.541 43.216 108.152C46.8853 105.677 48.72 102.093 48.72 97.4C48.72 95.096 48.208 93.0907 47.184 91.384C46.16 89.592 44.6667 88.056 42.704 86.776C40.8267 85.496 38.864 84.3867 36.816 83.448C34.8533 82.5093 32.464 81.528 29.648 80.504C28.88 80.248 28.2827 80.0347 27.856 79.864C14.4587 74.744 7.76 66.3813 7.76 54.776C7.76 47.608 10.064 42.2747 14.672 38.776C19.28 35.192 25.296 33.4 32.72 33.4H56.144ZM70.34 152.184V92.28C70.34 87.8427 71.1507 83.6613 72.772 79.736C74.3933 75.8107 76.612 72.44 79.428 69.624C82.244 66.7227 85.572 64.4613 89.412 62.84C93.252 61.1333 97.348 60.28 101.7 60.28C106.052 60.28 110.105 61.1333 113.86 62.84C117.7 64.4613 121.028 66.7227 123.844 69.624C126.745 72.5253 129.007 75.9387 130.628 79.864C132.249 83.704 133.06 87.8427 133.06 92.28C133.06 96.7173 132.249 100.899 130.628 104.824C129.092 108.664 126.916 112.035 124.1 114.936C121.284 117.837 117.956 120.141 114.116 121.848C110.276 123.469 106.137 124.28 101.7 124.28C96.2387 124.28 91.1613 123 86.468 120.44V108.92C90.6493 111.992 95.5987 113.528 101.316 113.528C104.388 113.528 107.161 113.016 109.636 111.992C112.196 110.883 114.329 109.389 116.036 107.512C117.828 105.635 119.193 103.416 120.132 100.856C121.071 98.2107 121.54 95.352 121.54 92.28C121.54 89.208 121.071 86.392 120.132 83.832C119.193 81.1867 117.871 78.9253 116.164 77.048C114.457 75.1707 112.367 73.72 109.892 72.696C107.503 71.5867 104.772 71.032 101.7 71.032C98.7133 71.032 95.9827 71.544 93.508 72.568C91.1187 73.592 89.028 75.0427 87.236 76.92C85.5293 78.7973 84.2067 81.0587 83.268 83.704C82.3293 86.264 81.86 89.1227 81.86 92.28V152.184H70.34ZM201.24 123V88.056C201.24 78.2427 203.075 71.4587 206.744 67.704C208.536 65.8267 210.712 64.4187 213.272 63.48C215.832 62.5413 218.051 61.9867 219.928 61.816C221.891 61.6453 224.536 61.56 227.864 61.56H239.128V72.312H225.56C223.853 72.312 222.531 72.3547 221.592 72.44C220.653 72.5253 219.544 72.824 218.264 73.336C216.984 73.848 215.875 74.6587 214.936 75.768C213.315 77.816 212.504 81.912 212.504 88.056V123H201.24ZM278.898 61.56H291.314L275.826 88.312C286.322 91.128 291.57 99.6187 291.57 113.784V123H280.306V113.656C280.306 107.939 278.599 103.544 275.186 100.472C271.858 97.3147 267.079 95.736 260.85 95.736C258.887 95.736 256.882 95.864 254.834 96.12V123H243.57V33.4H254.834V86.008C258.418 85.496 262.002 85.496 265.586 86.008L278.898 61.56Z"/>
<path d="M176.801 86.904V98.424C173.558 95.9493 169.59 94.712 164.897 94.712C160.886 94.712 157.772 95.5227 155.553 97.144C153.334 98.68 152.225 100.899 152.225 103.8C152.225 109.432 156.406 112.248 164.769 112.248H181.665V87.8C181.665 77.4747 176.63 72.312 166.561 72.312H146.081V61.56H167.201C175.478 61.56 181.836 63.608 186.273 67.704C190.71 71.8 192.929 77.688 192.929 85.368V123H164.385C157.132 123 151.372 121.379 147.105 118.136C142.838 114.893 140.705 110.157 140.705 103.928C140.705 97.6987 142.966 92.9627 147.489 89.72C152.012 86.4773 157.686 84.856 164.513 84.856C168.353 84.856 172.449 85.5387 176.801 86.904Z"/>
</mask>
<path d="M56.144 33.4V44.664H33.488C24.8693 44.664 20.56 48.1627 20.56 55.16C20.56 58.9147 22.4373 62.1147 26.192 64.76C30.032 67.32 35.1947 69.7947 41.68 72.184C44.5813 73.2933 47.056 74.4453 49.104 75.64C51.152 76.7493 53.2 78.2427 55.248 80.12C57.296 81.9973 58.832 84.4293 59.856 87.416C60.88 90.3173 61.392 93.688 61.392 97.528C61.392 101.795 60.496 105.635 58.704 109.048C56.912 112.376 54.608 115.021 51.792 116.984C48.976 118.861 46.0747 120.312 43.088 121.336C40.1867 122.275 37.328 122.787 34.512 122.872C33.3173 122.957 31.6107 123 29.392 123H9.424V111.736H29.008C34.8107 111.736 39.5467 110.541 43.216 108.152C46.8853 105.677 48.72 102.093 48.72 97.4C48.72 95.096 48.208 93.0907 47.184 91.384C46.16 89.592 44.6667 88.056 42.704 86.776C40.8267 85.496 38.864 84.3867 36.816 83.448C34.8533 82.5093 32.464 81.528 29.648 80.504C28.88 80.248 28.2827 80.0347 27.856 79.864C14.4587 74.744 7.76 66.3813 7.76 54.776C7.76 47.608 10.064 42.2747 14.672 38.776C19.28 35.192 25.296 33.4 32.72 33.4H56.144ZM70.34 152.184V92.28C70.34 87.8427 71.1507 83.6613 72.772 79.736C74.3933 75.8107 76.612 72.44 79.428 69.624C82.244 66.7227 85.572 64.4613 89.412 62.84C93.252 61.1333 97.348 60.28 101.7 60.28C106.052 60.28 110.105 61.1333 113.86 62.84C117.7 64.4613 121.028 66.7227 123.844 69.624C126.745 72.5253 129.007 75.9387 130.628 79.864C132.249 83.704 133.06 87.8427 133.06 92.28C133.06 96.7173 132.249 100.899 130.628 104.824C129.092 108.664 126.916 112.035 124.1 114.936C121.284 117.837 117.956 120.141 114.116 121.848C110.276 123.469 106.137 124.28 101.7 124.28C96.2387 124.28 91.1613 123 86.468 120.44V108.92C90.6493 111.992 95.5987 113.528 101.316 113.528C104.388 113.528 107.161 113.016 109.636 111.992C112.196 110.883 114.329 109.389 116.036 107.512C117.828 105.635 119.193 103.416 120.132 100.856C121.071 98.2107 121.54 95.352 121.54 92.28C121.54 89.208 121.071 86.392 120.132 83.832C119.193 81.1867 117.871 78.9253 116.164 77.048C114.457 75.1707 112.367 73.72 109.892 72.696C107.503 71.5867 104.772 71.032 101.7 71.032C98.7133 71.032 95.9827 71.544 93.508 72.568C91.1187 73.592 89.028 75.0427 87.236 76.92C85.5293 78.7973 84.2067 81.0587 83.268 83.704C82.3293 86.264 81.86 89.1227 81.86 92.28V152.184H70.34ZM201.24 123V88.056C201.24 78.2427 203.075 71.4587 206.744 67.704C208.536 65.8267 210.712 64.4187 213.272 63.48C215.832 62.5413 218.051 61.9867 219.928 61.816C221.891 61.6453 224.536 61.56 227.864 61.56H239.128V72.312H225.56C223.853 72.312 222.531 72.3547 221.592 72.44C220.653 72.5253 219.544 72.824 218.264 73.336C216.984 73.848 215.875 74.6587 214.936 75.768C213.315 77.816 212.504 81.912 212.504 88.056V123H201.24ZM278.898 61.56H291.314L275.826 88.312C286.322 91.128 291.57 99.6187 291.57 113.784V123H280.306V113.656C280.306 107.939 278.599 103.544 275.186 100.472C271.858 97.3147 267.079 95.736 260.85 95.736C258.887 95.736 256.882 95.864 254.834 96.12V123H243.57V33.4H254.834V86.008C258.418 85.496 262.002 85.496 265.586 86.008L278.898 61.56Z" fill="#C32F27"/>
<path d="M176.801 86.904V98.424C173.558 95.9493 169.59 94.712 164.897 94.712C160.886 94.712 157.772 95.5227 155.553 97.144C153.334 98.68 152.225 100.899 152.225 103.8C152.225 109.432 156.406 112.248 164.769 112.248H181.665V87.8C181.665 77.4747 176.63 72.312 166.561 72.312H146.081V61.56H167.201C175.478 61.56 181.836 63.608 186.273 67.704C190.71 71.8 192.929 77.688 192.929 85.368V123H164.385C157.132 123 151.372 121.379 147.105 118.136C142.838 114.893 140.705 110.157 140.705 103.928C140.705 97.6987 142.966 92.9627 147.489 89.72C152.012 86.4773 157.686 84.856 164.513 84.856C168.353 84.856 172.449 85.5387 176.801 86.904Z" fill="#E14B14"/>
<path d="M56.144 33.4H57.144V32.4H56.144V33.4ZM56.144 44.664V45.664H57.144V44.664H56.144ZM26.192 64.76L25.616 65.5775L25.6266 65.5849L25.6373 65.592L26.192 64.76ZM41.68 72.184L42.0372 71.2499L42.0257 71.2457L41.68 72.184ZM49.104 75.64L48.6001 76.5038L48.6138 76.5118L48.6277 76.5193L49.104 75.64ZM55.248 80.12L54.5723 80.8572L54.5723 80.8572L55.248 80.12ZM59.856 87.416L58.91 87.7403L58.913 87.7488L59.856 87.416ZM58.704 109.048L59.5845 109.522L59.5894 109.513L58.704 109.048ZM51.792 116.984L52.3467 117.816L52.3553 117.81L52.3638 117.804L51.792 116.984ZM43.088 121.336L43.3958 122.287L43.4041 122.285L43.4123 122.282L43.088 121.336ZM34.512 122.872L34.4817 121.872L34.4612 121.873L34.4408 121.875L34.512 122.872ZM9.424 123H8.424V124H9.424V123ZM9.424 111.736V110.736H8.424V111.736H9.424ZM43.216 108.152L43.7617 108.99L43.7684 108.986L43.7751 108.981L43.216 108.152ZM47.184 91.384L46.3158 91.8801L46.321 91.8894L46.3265 91.8985L47.184 91.384ZM42.704 86.776L42.1407 87.6022L42.1491 87.608L42.1577 87.6136L42.704 86.776ZM36.816 83.448L36.3845 84.3501L36.3919 84.3537L36.3993 84.3571L36.816 83.448ZM29.648 80.504L29.9897 79.5642L29.977 79.5596L29.9642 79.5553L29.648 80.504ZM27.856 79.864L28.2274 78.9355L28.2202 78.9326L28.213 78.9299L27.856 79.864ZM14.672 38.776L15.2768 39.5725L15.2859 39.5653L14.672 38.776ZM56.144 33.4H55.144V44.664H56.144H57.144V33.4H56.144ZM56.144 44.664V43.664H33.488V44.664V45.664H56.144V44.664ZM33.488 44.664V43.664C29.0692 43.664 25.5696 44.5567 23.1617 46.5116C20.7139 48.4989 19.56 51.4457 19.56 55.16H20.56H21.56C21.56 51.877 22.5607 49.5757 24.4223 48.0643C26.3237 46.5206 29.2881 45.664 33.488 45.664V44.664ZM20.56 55.16H19.56C19.56 59.3141 21.6626 62.7921 25.616 65.5775L26.192 64.76L26.768 63.9425C23.2121 61.4372 21.56 58.5152 21.56 55.16H20.56ZM26.192 64.76L25.6373 65.592C29.5662 68.2113 34.8079 70.7179 41.3343 73.1223L41.68 72.184L42.0257 71.2457C35.5814 68.8714 30.4978 66.4287 26.7467 63.9279L26.192 64.76ZM41.68 72.184L41.3229 73.118C44.1881 74.2136 46.6109 75.3434 48.6001 76.5038L49.104 75.64L49.6079 74.7762C47.5011 73.5473 44.9746 72.3731 42.0371 71.2499L41.68 72.184ZM49.104 75.64L48.6277 76.5193C50.5914 77.583 52.5735 79.0249 54.5723 80.8572L55.248 80.12L55.9237 79.3828C53.8265 77.4604 51.7126 75.9157 49.5803 74.7607L49.104 75.64ZM55.248 80.12L54.5723 80.8572C56.4812 82.607 57.9328 84.8898 58.9101 87.7403L59.856 87.416L60.8019 87.0917C59.7313 83.9688 58.1108 81.3877 55.9237 79.3828L55.248 80.12ZM59.856 87.416L58.913 87.7488C59.8912 90.5205 60.392 93.7744 60.392 97.528H61.392H62.392C62.392 93.6016 61.8688 90.1142 60.799 87.0832L59.856 87.416ZM61.392 97.528H60.392C60.392 101.65 59.5276 105.328 57.8186 108.583L58.704 109.048L59.5894 109.513C61.4644 105.941 62.392 101.939 62.392 97.528H61.392ZM58.704 109.048L57.8235 108.574C56.0982 111.778 53.895 114.299 51.2202 116.164L51.792 116.984L52.3638 117.804C55.321 115.743 57.7258 112.974 59.5845 109.522L58.704 109.048ZM51.792 116.984L51.2373 116.152C48.4878 117.985 45.6634 119.396 42.7637 120.39L43.088 121.336L43.4123 122.282C46.486 121.228 49.4642 119.738 52.3467 117.816L51.792 116.984ZM43.088 121.336L42.7802 120.385C39.9613 121.297 37.196 121.79 34.4817 121.872L34.512 122.872L34.5423 123.872C37.46 123.783 40.4121 123.253 43.3958 122.287L43.088 121.336ZM34.512 122.872L34.4408 121.875C33.2819 121.957 31.6032 122 29.392 122V123V124C31.6181 124 33.3528 123.957 34.5832 123.869L34.512 122.872ZM29.392 123V122H9.424V123V124H29.392V123ZM9.424 123H10.424V111.736H9.424H8.424V123H9.424ZM9.424 111.736V112.736H29.008V111.736V110.736H9.424V111.736ZM29.008 111.736V112.736C34.9427 112.736 39.885 111.514 43.7617 108.99L43.216 108.152L42.6703 107.314C39.2083 109.568 34.6787 110.736 29.008 110.736V111.736ZM43.216 108.152L43.7751 108.981C47.7394 106.308 49.72 102.402 49.72 97.4H48.72H47.72C47.72 101.785 46.0313 105.047 42.6569 107.323L43.216 108.152ZM48.72 97.4H49.72C49.72 94.9438 49.1726 92.7547 48.0415 90.8695L47.184 91.384L46.3265 91.8985C47.2434 93.4266 47.72 95.2482 47.72 97.4H48.72ZM47.184 91.384L48.0522 90.8879C46.9395 88.9405 45.3277 87.2932 43.2503 85.9384L42.704 86.776L42.1577 87.6136C44.0056 88.8188 45.3806 90.2435 46.3158 91.8801L47.184 91.384ZM42.704 86.776L43.2673 85.9498C41.3439 84.6384 39.3322 83.5012 37.2327 82.5389L36.816 83.448L36.3993 84.3571C38.3958 85.2721 40.3094 86.3536 42.1407 87.6022L42.704 86.776ZM36.816 83.448L37.2475 82.5459C35.2469 81.5891 32.8258 80.5955 29.9897 79.5642L29.648 80.504L29.3063 81.4438C32.1022 82.4605 34.4597 83.4296 36.3845 84.3501L36.816 83.448ZM29.648 80.504L29.9642 79.5553C29.2031 79.3016 28.6272 79.0955 28.2274 78.9355L27.856 79.864L27.4846 80.7925C27.9381 80.9739 28.5569 81.1944 29.3318 81.4527L29.648 80.504ZM27.856 79.864L28.213 78.9299C21.6261 76.4126 16.7711 73.13 13.5645 69.1268C10.3694 65.138 8.76 60.3716 8.76 54.776H7.76H6.76C6.76 60.7858 8.49996 66.0033 12.0035 70.3772C15.4955 74.7366 20.6886 78.1954 27.499 80.7981L27.856 79.864ZM7.76 54.776H8.76C8.76 47.8378 10.9771 42.837 15.2767 39.5724L14.672 38.776L14.0673 37.9795C9.1509 41.7124 6.76 47.3782 6.76 54.776H7.76ZM14.672 38.776L15.2859 39.5653C19.6755 36.1512 25.4571 34.4 32.72 34.4V33.4V32.4C25.1349 32.4 18.8845 34.2327 14.0581 37.9866L14.672 38.776ZM32.72 33.4V34.4H56.144V33.4V32.4H32.72V33.4ZM70.34 152.184H69.34V153.184H70.34V152.184ZM72.772 79.736L71.8477 79.3542L71.8477 79.3542L72.772 79.736ZM79.428 69.624L80.1351 70.3311L80.1404 70.3258L80.1456 70.3205L79.428 69.624ZM89.412 62.84L89.801 63.7612L89.8096 63.7576L89.8181 63.7538L89.412 62.84ZM113.86 62.84L113.446 63.7504L113.459 63.756L113.471 63.7612L113.86 62.84ZM123.844 69.624L123.126 70.3205L123.132 70.3258L123.137 70.3311L123.844 69.624ZM130.628 79.864L129.704 80.2458L129.707 80.253L130.628 79.864ZM130.628 104.824L129.704 104.442L129.7 104.453L130.628 104.824ZM124.1 114.936L124.818 115.632L124.818 115.632L124.1 114.936ZM114.116 121.848L114.505 122.769L114.514 122.766L114.522 122.762L114.116 121.848ZM86.468 120.44H85.468V121.034L85.9891 121.318L86.468 120.44ZM86.468 108.92L87.0601 108.114L85.468 106.944V108.92H86.468ZM109.636 111.992L110.018 112.916L110.026 112.913L110.034 112.91L109.636 111.992ZM116.036 107.512L115.313 106.822L115.304 106.83L115.296 106.839L116.036 107.512ZM120.132 100.856L121.071 101.2L121.074 101.19L120.132 100.856ZM120.132 83.832L119.19 84.1664L119.193 84.1763L120.132 83.832ZM116.164 77.048L115.424 77.7207L115.424 77.7207L116.164 77.048ZM109.892 72.696L109.471 73.603L109.49 73.6119L109.51 73.62L109.892 72.696ZM93.508 72.568L93.1256 71.6439L93.1141 71.6489L93.508 72.568ZM87.236 76.92L86.5126 76.2295L86.5042 76.2383L86.4961 76.2473L87.236 76.92ZM83.268 83.704L84.2069 84.0483L84.2104 84.0384L83.268 83.704ZM81.86 152.184V153.184H82.86V152.184H81.86ZM70.34 152.184H71.34V92.28H70.34H69.34V152.184H70.34ZM70.34 92.28H71.34C71.34 87.9677 72.1272 83.9166 73.6963 80.1178L72.772 79.736L71.8477 79.3542C70.1742 83.406 69.34 87.7177 69.34 92.28H70.34ZM72.772 79.736L73.6963 80.1178C75.2707 76.3059 77.4183 73.0479 80.1351 70.3311L79.428 69.624L78.7209 68.9169C75.8057 71.8321 73.516 75.3154 71.8477 79.3542L72.772 79.736ZM79.428 69.624L80.1456 70.3205C82.8653 67.5183 86.0806 65.3321 89.801 63.7612L89.412 62.84L89.023 61.9187C85.0634 63.5906 81.6227 65.927 78.7104 68.9275L79.428 69.624ZM89.412 62.84L89.8181 63.7538C93.5257 62.106 97.4828 61.28 101.7 61.28V60.28V59.28C97.2132 59.28 92.9783 60.1607 89.0059 61.9262L89.412 62.84ZM101.7 60.28V61.28C105.917 61.28 109.829 62.106 113.446 63.7504L113.86 62.84L114.274 61.9296C110.382 60.1607 106.187 59.28 101.7 59.28V60.28ZM113.86 62.84L113.471 63.7612C117.191 65.3321 120.407 67.5183 123.126 70.3205L123.844 69.624L124.562 68.9275C121.649 65.927 118.209 63.5906 114.249 61.9187L113.86 62.84ZM123.844 69.624L123.137 70.3311C125.942 73.1361 128.131 76.4378 129.704 80.2458L130.628 79.864L131.552 79.4822C129.882 75.4396 127.549 71.9146 124.551 68.9169L123.844 69.624ZM130.628 79.864L129.707 80.253C131.273 83.9621 132.06 87.9675 132.06 92.28H133.06H134.06C134.06 87.7178 133.226 83.4459 131.549 79.475L130.628 79.864ZM133.06 92.28H132.06C132.06 96.5923 131.273 100.643 129.704 104.442L130.628 104.824L131.552 105.206C133.226 101.154 134.06 96.8423 134.06 92.28H133.06ZM130.628 104.824L129.7 104.453C128.211 108.174 126.105 111.434 123.382 114.24L124.1 114.936L124.818 115.632C127.727 112.635 129.973 109.154 131.556 105.195L130.628 104.824ZM124.1 114.936L123.382 114.24C120.659 117.046 117.438 119.277 113.71 120.934L114.116 121.848L114.522 122.762C118.474 121.005 121.909 118.629 124.818 115.632L124.1 114.936ZM114.116 121.848L113.727 120.927C110.018 122.493 106.012 123.28 101.7 123.28V124.28V125.28C106.262 125.28 110.534 124.446 114.505 122.769L114.116 121.848ZM101.7 124.28V123.28C96.4022 123.28 91.49 122.04 86.9469 119.562L86.468 120.44L85.9891 121.318C90.8326 123.96 96.0751 125.28 101.7 125.28V124.28ZM86.468 120.44H87.468V108.92H86.468H85.468V120.44H86.468ZM86.468 108.92L85.8759 109.726C90.2464 112.937 95.4085 114.528 101.316 114.528V113.528V112.528C95.7888 112.528 91.0522 111.047 87.0601 108.114L86.468 108.92ZM101.316 113.528V114.528C104.5 114.528 107.406 113.997 110.018 112.916L109.636 111.992L109.254 111.068C106.917 112.035 104.276 112.528 101.316 112.528V113.528ZM109.636 111.992L110.034 112.91C112.711 111.749 114.965 110.177 116.776 108.185L116.036 107.512L115.296 106.839C113.694 108.602 111.681 110.016 109.238 111.074L109.636 111.992ZM116.036 107.512L116.759 108.202C118.651 106.221 120.087 103.883 121.071 101.2L120.132 100.856L119.193 100.512C118.299 102.949 117.005 105.049 115.313 106.822L116.036 107.512ZM120.132 100.856L121.074 101.19C122.055 98.428 122.54 95.4552 122.54 92.28H121.54H120.54C120.54 95.2488 120.087 97.9933 119.19 100.522L120.132 100.856ZM121.54 92.28H122.54C122.54 89.1053 122.055 86.1711 121.071 83.4877L120.132 83.832L119.193 84.1763C120.087 86.6129 120.54 89.3107 120.54 92.28H121.54ZM120.132 83.832L121.074 83.4976C120.096 80.7405 118.709 78.3608 116.904 76.3753L116.164 77.048L115.424 77.7207C117.032 79.4898 118.291 81.6328 119.19 84.1664L120.132 83.832ZM116.164 77.048L116.904 76.3753C115.093 74.3828 112.878 72.8492 110.274 71.772L109.892 72.696L109.51 73.62C111.856 74.5908 113.822 75.9585 115.424 77.7207L116.164 77.048ZM109.892 72.696L110.313 71.789C107.772 70.609 104.893 70.032 101.7 70.032V71.032V72.032C104.651 72.032 107.234 72.5643 109.471 73.603L109.892 72.696ZM101.7 71.032V70.032C98.5972 70.032 95.7348 70.5643 93.1256 71.644L93.508 72.568L93.8904 73.492C96.2306 72.5237 98.8294 72.032 101.7 72.032V71.032ZM93.508 72.568L93.1141 71.6489C90.6008 72.726 88.398 74.2543 86.5126 76.2295L87.236 76.92L87.9594 77.6105C89.658 75.831 91.6365 74.458 93.9019 73.4871L93.508 72.568ZM87.236 76.92L86.4961 76.2473C84.6911 78.2328 83.3039 80.6125 82.3256 83.3696L83.268 83.704L84.2104 84.0384C85.1094 81.5048 86.3676 79.3618 87.9759 77.5927L87.236 76.92ZM83.268 83.704L82.3291 83.3597C81.3442 86.0459 80.86 89.0235 80.86 92.28H81.86H82.86C82.86 89.2219 83.3145 86.4821 84.2069 84.0483L83.268 83.704ZM81.86 92.28H80.86V152.184H81.86H82.86V92.28H81.86ZM81.86 152.184V151.184H70.34V152.184V153.184H81.86V152.184ZM176.801 86.904H177.801V86.1697L177.1 85.9499L176.801 86.904ZM176.801 98.424L176.194 99.219L177.801 100.445V98.424H176.801ZM155.553 97.144L156.122 97.9662L156.133 97.9589L156.143 97.9514L155.553 97.144ZM181.665 112.248V113.248H182.665V112.248H181.665ZM146.081 72.312H145.081V73.312H146.081V72.312ZM146.081 61.56V60.56H145.081V61.56H146.081ZM186.273 67.704L186.951 66.9692L186.951 66.9692L186.273 67.704ZM192.929 123V124H193.929V123H192.929ZM147.105 118.136L146.5 118.932L147.105 118.136ZM147.489 89.72L146.906 88.9073L146.906 88.9073L147.489 89.72ZM176.801 86.904H175.801V98.424H176.801H177.801V86.904H176.801ZM176.801 98.424L177.408 97.629C173.965 95.0019 169.775 93.712 164.897 93.712V94.712V95.712C169.406 95.712 173.151 96.8968 176.194 99.219L176.801 98.424ZM164.897 94.712V93.712C160.768 93.712 157.415 94.5444 154.963 96.3366L155.553 97.144L156.143 97.9514C158.128 96.5009 161.005 95.712 164.897 95.712V94.712ZM155.553 97.144L154.984 96.3218C152.472 98.0606 151.225 100.6 151.225 103.8H152.225H153.225C153.225 101.198 154.196 99.2994 156.122 97.9662L155.553 97.144ZM152.225 103.8H151.225C151.225 106.903 152.4 109.347 154.802 110.965C157.135 112.536 160.507 113.248 164.769 113.248V112.248V111.248C160.669 111.248 157.769 110.552 155.92 109.307C154.141 108.109 153.225 106.329 153.225 103.8H152.225ZM164.769 112.248V113.248H181.665V112.248V111.248H164.769V112.248ZM181.665 112.248H182.665V87.8H181.665H180.665V112.248H181.665ZM181.665 87.8H182.665C182.665 82.4894 181.37 78.3216 178.605 75.4858C175.835 72.6454 171.756 71.312 166.561 71.312V72.312V73.312C171.435 73.312 174.908 74.5599 177.173 76.8822C179.442 79.2091 180.665 82.7853 180.665 87.8H181.665ZM166.561 72.312V71.312H146.081V72.312V73.312H166.561V72.312ZM146.081 72.312H147.081V61.56H146.081H145.081V72.312H146.081ZM146.081 61.56V62.56H167.201V61.56V60.56H146.081V61.56ZM167.201 61.56V62.56C175.321 62.56 181.401 64.5679 185.595 68.4388L186.273 67.704L186.951 66.9692C182.27 62.6481 175.636 60.56 167.201 60.56V61.56ZM186.273 67.704L185.595 68.4388C189.774 72.2969 191.929 77.8864 191.929 85.368H192.929H193.929C193.929 77.4896 191.646 71.3031 186.951 66.9692L186.273 67.704ZM192.929 85.368H191.929V123H192.929H193.929V85.368H192.929ZM192.929 123V122H164.385V123V124H192.929V123ZM164.385 123V122C157.274 122 151.75 120.41 147.71 117.34L147.105 118.136L146.5 118.932C150.993 122.347 156.99 124 164.385 124V123ZM147.105 118.136L147.71 117.34C143.735 114.319 141.705 109.902 141.705 103.928H140.705H139.705C139.705 110.412 141.942 115.468 146.5 118.932L147.105 118.136ZM140.705 103.928H141.705C141.705 97.9764 143.845 93.563 148.072 90.5327L147.489 89.72L146.906 88.9073C142.087 92.3623 139.705 97.4209 139.705 103.928H140.705ZM147.489 89.72L148.072 90.5327C152.389 87.4372 157.847 85.856 164.513 85.856V84.856V83.856C157.525 83.856 151.634 85.5175 146.906 88.9073L147.489 89.72ZM164.513 84.856V85.856C168.235 85.856 172.229 86.5177 176.502 87.8581L176.801 86.904L177.1 85.9499C172.669 84.5597 168.472 83.856 164.513 83.856V84.856ZM201.24 123H200.24V124H201.24V123ZM206.744 67.704L207.459 68.403L207.467 68.3945L206.744 67.704ZM213.272 63.48L212.928 62.5411L212.928 62.5411L213.272 63.48ZM219.928 61.816L219.841 60.8197L219.837 60.8201L219.928 61.816ZM239.128 61.56H240.128V60.56H239.128V61.56ZM239.128 72.312V73.312H240.128V72.312H239.128ZM221.592 72.44L221.683 73.4359L221.683 73.4359L221.592 72.44ZM218.264 73.336L218.635 74.2645L218.635 74.2645L218.264 73.336ZM214.936 75.768L214.173 75.1221L214.162 75.1345L214.152 75.1473L214.936 75.768ZM212.504 123V124H213.504V123H212.504ZM201.24 123H202.24V88.056H201.24H200.24V123H201.24ZM201.24 88.056H202.24C202.24 78.3009 204.077 71.8636 207.459 68.4029L206.744 67.704L206.029 67.0051C202.072 71.0537 200.24 78.1845 200.24 88.056H201.24ZM206.744 67.704L207.467 68.3945C209.148 66.6335 211.192 65.3076 213.616 64.4189L213.272 63.48L212.928 62.5411C210.232 63.5297 207.924 65.0198 206.021 67.0135L206.744 67.704ZM213.272 63.48L213.616 64.4189C216.127 63.4981 218.257 62.972 220.019 62.8119L219.928 61.816L219.837 60.8201C217.844 61.0013 215.537 61.5846 212.928 62.5411L213.272 63.48ZM219.928 61.816L220.015 62.8122C221.936 62.6452 224.548 62.56 227.864 62.56V61.56V60.56C224.524 60.56 221.846 60.6455 219.841 60.8198L219.928 61.816ZM227.864 61.56V62.56H239.128V61.56V60.56H227.864V61.56ZM239.128 61.56H238.128V72.312H239.128H240.128V61.56H239.128ZM239.128 72.312V71.312H225.56V72.312V73.312H239.128V72.312ZM225.56 72.312V71.312C223.843 71.312 222.485 71.3547 221.501 71.4441L221.592 72.44L221.683 73.4359C222.576 73.3546 223.864 73.312 225.56 73.312V72.312ZM221.592 72.44L221.501 71.4441C220.433 71.5412 219.225 71.8746 217.893 72.4075L218.264 73.336L218.635 74.2645C219.863 73.7734 220.874 73.5094 221.683 73.4359L221.592 72.44ZM218.264 73.336L217.893 72.4075C216.453 72.9835 215.211 73.8949 214.173 75.1221L214.936 75.768L215.699 76.4139C216.538 75.4224 217.515 74.7125 218.635 74.2645L218.264 73.336ZM214.936 75.768L214.152 75.1473C213.201 76.3487 212.551 78.0614 212.131 80.1818C211.709 82.316 211.504 84.9462 211.504 88.056H212.504H213.504C213.504 85.0217 213.705 82.532 214.093 80.5701C214.484 78.5946 215.05 77.2353 215.72 76.3887L214.936 75.768ZM212.504 88.056H211.504V123H212.504H213.504V88.056H212.504ZM212.504 123V122H201.24V123V124H212.504V123ZM278.898 61.56V60.56H278.304L278.02 61.0818L278.898 61.56ZM291.314 61.56L292.179 62.061L293.048 60.56H291.314V61.56ZM275.826 88.312L274.961 87.811L274.307 88.9398L275.567 89.2778L275.826 88.312ZM291.57 123V124H292.57V123H291.57ZM280.306 123H279.306V124H280.306V123ZM275.186 100.472L274.498 101.197L274.507 101.207L274.517 101.215L275.186 100.472ZM254.834 96.12L254.71 95.1277L253.834 95.2372V96.12H254.834ZM254.834 123V124H255.834V123H254.834ZM243.57 123H242.57V124H243.57V123ZM243.57 33.4V32.4H242.57V33.4H243.57ZM254.834 33.4H255.834V32.4H254.834V33.4ZM254.834 86.008H253.834V87.161L254.975 86.9979L254.834 86.008ZM265.586 86.008L265.445 86.9979L266.132 87.0962L266.464 86.4862L265.586 86.008ZM278.898 61.56V62.56H291.314V61.56V60.56H278.898V61.56ZM291.314 61.56L290.449 61.059L274.961 87.811L275.826 88.312L276.691 88.813L292.179 62.061L291.314 61.56ZM275.826 88.312L275.567 89.2778C280.593 90.6262 284.306 93.3092 286.783 97.3178C289.277 101.352 290.57 106.813 290.57 113.784H291.57H292.57C292.57 106.59 291.239 100.722 288.485 96.2662C285.714 91.7841 281.555 88.8138 276.085 87.3462L275.826 88.312ZM291.57 113.784H290.57V123H291.57H292.57V113.784H291.57ZM291.57 123V122H280.306V123V124H291.57V123ZM280.306 123H281.306V113.656H280.306H279.306V123H280.306ZM280.306 113.656H281.306C281.306 107.73 279.529 103.035 275.855 99.7287L275.186 100.472L274.517 101.215C277.67 104.053 279.306 108.147 279.306 113.656H280.306ZM275.186 100.472L275.874 99.7465C272.302 96.3577 267.242 94.736 260.85 94.736V95.736V96.736C266.917 96.736 271.414 98.2716 274.498 101.197L275.186 100.472ZM260.85 95.736V94.736C258.844 94.736 256.797 94.8668 254.71 95.1277L254.834 96.12L254.958 97.1123C256.967 96.8612 258.931 96.736 260.85 96.736V95.736ZM254.834 96.12H253.834V123H254.834H255.834V96.12H254.834ZM254.834 123V122H243.57V123V124H254.834V123ZM243.57 123H244.57V33.4H243.57H242.57V123H243.57ZM243.57 33.4V34.4H254.834V33.4V32.4H243.57V33.4ZM254.834 33.4H253.834V86.008H254.834H255.834V33.4H254.834ZM254.834 86.008L254.975 86.9979C258.466 86.4993 261.954 86.4993 265.445 86.9979L265.586 86.008L265.727 85.018C262.05 84.4926 258.37 84.4926 254.693 85.018L254.834 86.008ZM265.586 86.008L266.464 86.4862L279.776 62.0382L278.898 61.56L278.02 61.0818L264.708 85.5298L265.586 86.008Z" fill="#780116" mask="url(#path-5-outside-1_3_14)"/>
<path d="M148.25 56.9492V77.0508L138.206 67L148.25 56.9492Z" fill="#E14B14" stroke="#780116"/>
<path d="M148.634 65.9278C148.24 65.8669 147.68 65.7706 147.259 65.7015C147.155 65.6985 147.084 65.6995 147.05 65.7014C146.967 65.7057 147.097 65.7144 147.602 65.8186C148.108 65.9228 148.984 66.1223 148.915 66.2468C148.845 66.3713 147.804 66.4147 147.299 66.424C146.793 66.4333 146.853 66.4073 147.227 66.4676C147.601 66.528 148.287 66.6754 148.653 66.7557C149.045 66.8419 149.098 66.8537 149.107 66.8623C149.166 66.919 148.559 66.9236 147.871 66.9412C147.819 66.9425 147.772 66.9428 147.729 66.9422C147.779 66.951 147.837 66.962 147.902 66.9756C148.234 67.045 148.763 67.1838 149.018 67.2597C149.273 67.3355 149.239 67.3442 149.082 67.3487C148.648 67.361 148.206 67.3271 148.177 67.3527C147.751 67.7372 149.194 67.6773 149.272 67.6947C149.308 67.7026 149.334 67.7122 149.074 67.7037C148.92 67.6986 148.666 67.6874 148.419 67.6737C148.64 67.761 148.808 67.8711 148.865 67.9136C148.887 67.9294 148.853 67.9746 148.813 68.0011C148.723 68.0623 148.373 68.0629 148.092 68.1063C147.851 68.1433 148.471 68.2851 148.835 68.3508C148.851 68.3151 148.877 68.2927 148.924 68.2999C148.986 68.3095 149.083 68.3871 149.04 68.3827C148.997 68.3783 148.924 68.3668 148.835 68.3508C148.83 68.3628 148.825 68.3763 148.822 68.3907C148.815 68.422 148.814 68.4546 148.818 68.4878C148.837 68.4889 148.857 68.4905 148.876 68.4924C149.143 68.5187 149.405 68.5648 149.616 68.6592C149.694 68.6943 149.72 68.725 149.698 68.7557C149.641 68.8344 149.553 68.9237 149.425 68.9128C149.219 68.8952 149.038 68.8664 148.961 68.7762C148.95 68.7632 148.939 68.7499 148.929 68.7363C148.592 68.7723 147.857 68.8213 148.048 68.6605C147.93 68.6956 147.86 68.7792 147.836 68.8335C147.798 68.9225 147.87 68.9863 147.995 69.0297C148.036 69.0048 148.081 68.9813 148.131 68.9603C148.328 68.8775 148.636 68.7904 148.941 68.8564C149.045 68.8789 149.045 68.9309 149.009 68.9793C148.974 69.0276 148.908 69.0883 148.816 69.0972C148.588 69.1191 148.212 69.1053 147.995 69.0297C147.822 69.134 147.723 69.2639 147.687 69.3415C147.613 69.5043 147.678 69.6922 147.739 69.7797C147.838 69.921 148.122 69.8781 148.388 69.8021C148.422 69.7821 148.457 69.7658 148.494 69.754C148.52 69.7453 148.549 69.7519 148.514 69.7632C148.473 69.7766 148.431 69.7898 148.388 69.8021C148.329 69.8362 148.274 69.8811 148.222 69.9341C148.227 69.9339 148.232 69.9337 148.236 69.9336C148.477 69.9293 148.756 69.9164 148.879 70.0175C148.922 70.0528 148.908 70.0981 148.878 70.1403C148.817 70.2277 148.765 70.3178 148.681 70.3458C148.563 70.3851 148.456 70.398 148.37 70.3671C148.247 70.3233 148.141 70.2754 148.134 70.2091C148.125 70.1304 148.121 70.0519 148.161 70.0033C148.18 69.979 148.201 69.9559 148.222 69.9341C148.102 69.94 148.026 69.9932 147.95 70.0689C147.87 70.1494 147.854 70.2532 147.84 70.3491C147.824 70.4713 147.844 70.5787 147.886 70.6516C147.919 70.646 147.953 70.643 147.986 70.6434C148.381 70.648 149.027 70.7654 148.861 70.8015C148.603 70.8578 148.077 70.8775 147.914 70.6911C147.904 70.6794 147.895 70.6662 147.886 70.6516C147.844 70.5787 147.824 70.4713 147.84 70.3491C147.854 70.2532 147.87 70.1494 147.95 70.0689C148.026 69.9932 148.102 69.94 148.222 69.9341C148.274 69.8811 148.329 69.8362 148.388 69.8021C148.122 69.8781 147.838 69.921 147.739 69.7797C147.678 69.6922 147.613 69.5043 147.687 69.3415C147.723 69.2639 147.822 69.134 147.995 69.0297C147.87 68.9863 147.798 68.9225 147.836 68.8335C147.86 68.7792 147.93 68.6956 148.048 68.6605C148.054 68.6555 148.061 68.6503 148.069 68.6449C148.206 68.55 148.497 68.4685 148.818 68.4878C148.814 68.4546 148.815 68.422 148.822 68.3907C148.825 68.3763 148.83 68.3628 148.835 68.3508C148.471 68.2851 147.851 68.1433 148.092 68.1063C148.373 68.0629 148.723 68.0623 148.813 68.0011C148.853 67.9746 148.887 67.9294 148.865 67.9136C148.808 67.8711 148.64 67.761 148.419 67.6737C148.248 67.6642 148.081 67.6535 147.951 67.6427C147.635 67.6163 147.566 67.5902 147.604 67.5812C147.888 67.5132 148.184 67.5805 148.419 67.6737C148.666 67.6874 148.92 67.6986 149.074 67.7037C149.334 67.7122 149.308 67.7026 149.272 67.6947C149.194 67.6773 147.751 67.7372 148.177 67.3527C148.206 67.3271 148.648 67.361 149.082 67.3487C149.239 67.3442 149.273 67.3355 149.018 67.2597C148.763 67.1838 148.234 67.045 147.902 66.9756C147.837 66.962 147.779 66.951 147.729 66.9422C147.545 66.9398 147.452 66.9224 147.447 66.9152C147.442 66.908 147.524 66.9066 147.729 66.9422C147.772 66.9428 147.819 66.9425 147.871 66.9412C148.559 66.9236 149.166 66.919 149.107 66.8623C149.098 66.8537 149.045 66.8419 148.653 66.7557C148.287 66.6754 147.601 66.528 147.227 66.4676C146.853 66.4073 146.793 66.4333 147.299 66.424C147.804 66.4147 148.845 66.3713 148.915 66.2468C148.984 66.1223 148.108 65.9228 147.602 65.8186C147.097 65.7144 146.967 65.7057 147.05 65.7014C147.084 65.6995 147.155 65.6985 147.259 65.7015C147.402 65.7057 147.61 65.7177 147.874 65.7462C148.33 65.7953 148.937 65.8908 149.263 65.9519C149.589 66.013 149.641 66.0476 149.632 66.0476C149.588 66.0474 149.328 66.0355 148.634 65.9278Z" fill="#E14B14"/>
<path d="M147.411 62.1384H149.286M147.47 62.1148H148.826M148.838 62.103H147.352H149.05M147.269 62.0558H148.862M147.284 62.7528H149.746C150.194 62.7528 150.081 62.7528 149.611 62.8005C149.141 62.8482 148.317 62.9437 147.862 62.9928C147.242 63.0599 147.109 63.0683 147.056 63.0726C147.046 63.0735 147.073 63.0856 147.551 63.1465C148.028 63.2073 148.956 63.3201 148.944 63.4303C148.932 63.5404 147.952 63.6445 147.885 63.7111C147.818 63.7778 148.695 63.8038 149.129 63.8215C149.563 63.8393 149.528 63.848 149.458 63.8524C149.388 63.8569 149.284 63.8569 148.909 63.9003C148.535 63.9436 147.893 64.0304 147.579 64.0794C147.266 64.1284 147.301 64.1371 147.457 64.1589C147.614 64.1808 147.892 64.2155 148.343 64.3157C148.794 64.416 149.41 64.5809 149.749 64.6744C150.088 64.768 150.131 64.7854 149.793 64.79C149.456 64.7946 148.736 64.7859 148.326 64.7728C147.916 64.7596 147.838 64.7423 148.235 64.8157C148.633 64.8892 149.509 65.054 149.297 65.1997C149.085 65.3453 147.758 65.4667 147.117 65.5293C146.477 65.5919 146.564 65.5919 146.981 65.6569C147.063 65.6696 147.157 65.6848 147.259 65.7015M147.259 65.7015C147.68 65.7706 148.24 65.8669 148.634 65.9278C149.328 66.0355 149.588 66.0474 149.632 66.0476C149.641 66.0476 149.589 66.013 149.263 65.9519C148.937 65.8908 148.33 65.7953 147.874 65.7462C147.61 65.7177 147.402 65.7057 147.259 65.7015ZM147.259 65.7015C147.155 65.6985 147.084 65.6995 147.05 65.7014C146.967 65.7057 147.097 65.7144 147.602 65.8186C148.108 65.9228 148.984 66.1223 148.915 66.2468C148.845 66.3713 147.804 66.4147 147.299 66.424C146.793 66.4333 146.853 66.4073 147.227 66.4676C147.601 66.528 148.287 66.6754 148.653 66.7557C149.045 66.8419 149.098 66.8537 149.107 66.8623C149.166 66.919 148.559 66.9236 147.871 66.9412C147.819 66.9425 147.772 66.9428 147.729 66.9422M147.729 66.9422C147.545 66.9398 147.452 66.9224 147.447 66.9152C147.442 66.908 147.524 66.9066 147.729 66.9422ZM147.729 66.9422C147.779 66.951 147.837 66.962 147.902 66.9756C148.234 67.045 148.763 67.1838 149.018 67.2597C149.273 67.3355 149.239 67.3442 149.082 67.3487C148.648 67.361 148.206 67.3271 148.177 67.3527C147.751 67.7372 149.194 67.6773 149.272 67.6947C149.308 67.7026 149.334 67.7122 149.074 67.7037C148.92 67.6986 148.666 67.6874 148.419 67.6737M148.419 67.6737C148.248 67.6642 148.081 67.6535 147.951 67.6427C147.635 67.6163 147.566 67.5902 147.604 67.5812C147.888 67.5132 148.184 67.5805 148.419 67.6737ZM148.419 67.6737C148.64 67.761 148.808 67.8711 148.865 67.9136C148.887 67.9294 148.853 67.9746 148.813 68.0011C148.723 68.0623 148.373 68.0629 148.092 68.1063C147.851 68.1433 148.471 68.2851 148.835 68.3508M148.835 68.3508C148.924 68.3668 148.997 68.3783 149.04 68.3827C149.083 68.3871 148.986 68.3095 148.924 68.2999C148.877 68.2927 148.851 68.3151 148.835 68.3508ZM148.835 68.3508C148.83 68.3628 148.825 68.3763 148.822 68.3907C148.815 68.422 148.814 68.4546 148.818 68.4878M148.818 68.4878C148.821 68.5165 148.828 68.5457 148.839 68.5748M148.818 68.4878C148.837 68.4889 148.857 68.4905 148.876 68.4924C149.143 68.5187 149.405 68.5648 149.616 68.6592C149.694 68.6943 149.72 68.725 149.698 68.7557C149.641 68.8344 149.553 68.9237 149.425 68.9128C149.219 68.8952 149.038 68.8664 148.961 68.7762C148.95 68.7632 148.939 68.7499 148.929 68.7363M148.818 68.4878C148.497 68.4685 148.206 68.55 148.069 68.6449C148.061 68.6503 148.054 68.6555 148.048 68.6605M148.839 68.5748C148.859 68.63 148.891 68.6849 148.929 68.7363M148.839 68.5748C148.981 68.5795 149.093 68.6054 149.137 68.6678C149.15 68.6854 149.125 68.7062 149.084 68.7159C149.067 68.72 149.009 68.7278 148.929 68.7363M148.839 68.5748C148.616 68.5674 148.319 68.6123 148.095 68.6496C148.079 68.6524 148.063 68.656 148.048 68.6605M148.929 68.7363C148.592 68.7723 147.857 68.8213 148.048 68.6605M148.048 68.6605C147.93 68.6956 147.86 68.7792 147.836 68.8335C147.798 68.9225 147.87 68.9863 147.995 69.0297M147.995 69.0297C148.212 69.1053 148.588 69.1191 148.816 69.0972C148.908 69.0883 148.974 69.0276 149.009 68.9793C149.045 68.9309 149.045 68.8789 148.941 68.8564C148.636 68.7904 148.328 68.8775 148.131 68.9603C148.081 68.9813 148.036 69.0048 147.995 69.0297ZM147.995 69.0297C147.822 69.134 147.723 69.2639 147.687 69.3415C147.613 69.5043 147.678 69.6922 147.739 69.7797C147.838 69.921 148.122 69.8781 148.388 69.8021M148.388 69.8021C148.431 69.7898 148.473 69.7766 148.514 69.7632C148.549 69.7519 148.52 69.7453 148.494 69.754C148.457 69.7658 148.422 69.7821 148.388 69.8021ZM148.388 69.8021C148.329 69.8362 148.274 69.8811 148.222 69.9341M148.222 69.9341C148.201 69.9559 148.18 69.979 148.161 70.0033C148.121 70.0519 148.125 70.1304 148.134 70.2091C148.141 70.2754 148.247 70.3233 148.37 70.3671C148.456 70.398 148.563 70.3851 148.681 70.3458C148.765 70.3178 148.817 70.2277 148.878 70.1403C148.908 70.0981 148.922 70.0528 148.879 70.0175C148.756 69.9164 148.477 69.9293 148.236 69.9336C148.232 69.9337 148.227 69.9339 148.222 69.9341ZM148.222 69.9341C148.102 69.94 148.026 69.9932 147.95 70.0689C147.87 70.1494 147.854 70.2532 147.84 70.3491C147.824 70.4713 147.844 70.5787 147.886 70.6516M147.886 70.6516C147.895 70.6662 147.904 70.6794 147.914 70.6911C148.077 70.8775 148.603 70.8578 148.861 70.8015C149.027 70.7654 148.381 70.648 147.986 70.6434C147.953 70.643 147.919 70.646 147.886 70.6516ZM147.886 70.6516C147.611 70.6987 147.369 70.9336 147.35 70.9804C147.339 71.0051 147.354 71.0328 147.384 71.0636C147.546 71.2268 147.947 71.2694 148.173 71.3006C148.221 71.3049 148.29 71.3136 148.421 71.3224C148.553 71.3312 148.743 71.3399 148.993 71.3225M147.565 71.7903H149.173M147.725 71.7613H148.97M148.313 71.7323H148.965M147.98 71.771H148.313M147.738 71.6992H148.641M147.734 71.7812H148.645M147.355 71.7422H148.902M148.668 71.7969H148.887M147.227 71.793H148.668M147.219 71.8008H148.766" stroke="#E14B14" stroke-linecap="round"/>
</svg>
